<?xml version="1.0" standalone="no"?>
<!DOCTYPE svg PUBLIC "-//W3C//DTD SVG 20010904//EN"
 "http://www.w3.org/TR/2001/REC-SVG-20010904/DTD/svg10.dtd">
<svg version="1.0" xmlns="http://www.w3.org/2000/svg"
 width="682.000000pt" height="682.000000pt" viewBox="0 0 682.000000 682.000000"
 preserveAspectRatio="xMidYMid meet">
<metadata>
Created by potrace 1.14, written by Peter Selinger 2001-2017
</metadata>
<g transform="translate(0.000000,682.000000) scale(0.100000,-0.100000)"
fill="#000000" stroke="none">
<path d="M1775 6427 c-11 -7 -25 -19 -32 -27 -7 -8 -13 -11 -13 -6 0 4 -29
-21 -64 -57 -62 -63 -100 -120 -108 -162 -1 -11 -6 -22 -10 -25 -11 -9 -15
-111 -5 -169 12 -76 12 -75 19 -86 3 -5 9 -27 12 -47 5 -35 3 -39 -34 -64 -22
-15 -40 -30 -40 -34 0 -11 -30 -8 -31 4 0 6 -1 37 -2 68 -2 31 -6 60 -10 64
-4 4 -7 15 -7 24 0 22 -57 133 -82 159 -10 11 -18 24 -18 30 0 5 -7 11 -15 15
-8 3 -15 1 -15 -4 0 -6 -4 -9 -9 -8 -5 2 -24 -14 -44 -34 -20 -21 -40 -38 -46
-38 -5 0 -13 -9 -16 -20 -3 -11 -11 -20 -16 -20 -6 0 -7 -4 -4 -10 3 -5 1 -10
-5 -10 -6 0 -16 -13 -21 -30 -6 -16 -15 -30 -20 -30 -5 0 -8 -3 -7 -7 1 -5 -4
-28 -12 -53 -16 -58 -15 -177 2 -206 4 -6 9 -21 11 -35 3 -13 17 -50 32 -81
l27 -57 -21 -22 c-25 -27 -37 -18 -44 31 -6 44 -16 70 -35 93 -8 9 -12 17 -8
17 11 0 -32 60 -70 97 -17 17 -30 34 -27 37 3 2 -5 9 -16 15 -17 10 -26 6 -55
-21 -44 -43 -99 -131 -120 -191 -16 -47 -27 -162 -17 -172 3 -3 6 -11 7 -18 1
-7 4 -21 6 -32 2 -11 10 -31 18 -45 7 -14 12 -25 10 -25 -2 0 0 -10 4 -22 4
-13 12 -23 17 -23 5 0 8 -3 7 -7 -3 -17 15 -63 23 -58 5 3 11 -6 15 -21 4 -17
2 -29 -7 -35 -15 -9 -29 6 -29 34 0 9 -4 17 -10 17 -5 0 -10 5 -10 11 0 17
-46 80 -53 72 -4 -3 -7 0 -7 8 0 13 -98 109 -112 109 -4 0 -17 -11 -30 -25
-37 -39 -49 -55 -43 -55 4 0 -1 -7 -9 -16 -9 -8 -16 -22 -16 -30 0 -8 -5 -14
-12 -14 -6 0 -9 -3 -6 -6 4 -3 0 -21 -8 -40 -8 -19 -11 -34 -8 -34 4 0 2 -6
-3 -12 -11 -15 -10 -152 1 -183 5 -11 13 -33 19 -50 13 -38 83 -143 114 -172
13 -13 19 -23 13 -23 -6 0 -9 -4 -5 -9 3 -5 1 -12 -5 -16 -6 -4 -8 -10 -5 -15
3 -5 1 -11 -5 -15 -6 -4 -8 -11 -5 -16 4 -5 -1 -9 -10 -9 -8 0 -19 8 -22 17
-7 18 -20 35 -70 91 -18 20 -33 33 -33 29 0 -3 -11 4 -24 16 -13 12 -41 31
-63 42 -21 11 -40 22 -43 25 -16 16 -33 5 -50 -35 -11 -25 -19 -47 -20 -50 0
-3 -6 -21 -14 -40 -8 -19 -12 -35 -8 -35 3 0 1 -5 -5 -11 -8 -8 -8 -20 -3 -35
5 -13 6 -26 1 -28 -6 -4 -7 -51 -1 -51 2 0 7 -30 12 -72 1 -7 5 -13 10 -13 5
0 7 -3 5 -7 -14 -22 115 -193 144 -193 7 0 9 -3 6 -7 -4 -3 6 -14 22 -24 31
-19 59 -59 42 -59 -5 0 -8 -9 -6 -20 7 -35 -10 -30 -61 18 -27 26 -63 54 -79
62 -17 8 -32 17 -35 21 -6 6 -72 34 -82 34 -3 0 -10 3 -14 8 -4 4 -18 7 -31 7
-13 0 -23 4 -23 10 0 5 -7 7 -15 4 -8 -3 -14 -9 -13 -12 0 -4 -1 -9 -2 -12
-15 -40 -31 -197 -22 -214 3 -5 6 -25 7 -45 4 -51 13 -85 25 -89 6 -2 8 -7 5
-12 -5 -8 34 -68 76 -117 35 -42 112 -99 173 -130 28 -14 54 -30 57 -36 8 -11
4 -95 -4 -103 -3 -3 -15 4 -26 15 -12 12 -25 21 -30 21 -5 0 -11 4 -13 9 -1 5
-10 11 -18 13 -8 2 -17 6 -20 9 -8 9 -92 41 -135 51 -22 5 -82 12 -134 15
l-93 5 5 -93 c5 -81 12 -134 17 -134 1 0 3 -9 5 -20 6 -32 37 -97 69 -145 43
-64 137 -150 163 -150 7 0 13 -4 13 -9 0 -9 135 -65 181 -75 95 -21 113 -28
115 -47 1 -5 3 -11 4 -14 1 -3 4 -14 5 -25 1 -11 4 -22 5 -25 1 -3 3 -8 4 -12
1 -5 5 -14 10 -22 5 -8 4 -16 -5 -22 -19 -12 -29 -11 -29 2 0 5 -5 7 -10 4 -6
-3 -10 -1 -10 6 0 7 -3 9 -7 6 -3 -4 -11 -3 -18 3 -23 19 -133 36 -225 34
-168 -3 -200 -17 -174 -80 8 -19 14 -36 14 -39 -1 -15 15 -63 28 -82 8 -13 11
-23 8 -23 -4 0 7 -20 24 -45 17 -25 29 -45 26 -45 -2 0 25 -29 60 -65 36 -36
67 -65 70 -65 3 0 18 -9 34 -20 15 -11 30 -17 34 -13 3 3 6 1 6 -5 0 -7 3 -12
8 -11 4 1 16 -2 27 -5 11 -4 24 -6 29 -6 5 1 12 -3 15 -9 4 -5 24 -11 45 -13
20 -1 39 -5 41 -8 4 -6 60 -11 162 -14 28 -1 54 -3 56 -6 2 -3 19 -30 36 -62
22 -39 28 -58 20 -63 -6 -4 -14 -4 -18 1 -3 5 -17 11 -31 12 -14 2 -29 7 -35
11 -22 17 -250 17 -250 1 0 -1 -11 -3 -25 -5 -14 -1 -37 -7 -51 -13 -15 -6
-30 -8 -33 -5 -3 4 -6 0 -6 -7 0 -7 -3 -11 -6 -7 -7 7 -64 -20 -64 -29 0 -10
62 -137 74 -152 6 -8 23 -28 38 -44 16 -16 28 -33 28 -36 1 -4 15 -18 32 -32
17 -14 41 -35 54 -48 13 -13 24 -20 24 -17 0 4 13 -3 30 -15 16 -12 30 -19 30
-15 0 3 10 0 23 -7 12 -6 31 -13 42 -15 10 -2 22 -7 25 -11 3 -4 19 -7 35 -6
17 0 34 -2 40 -5 14 -7 185 -7 185 1 0 3 9 4 20 1 11 -3 33 -1 49 5 22 8 31 7
34 -1 2 -7 9 -2 16 11 10 20 14 21 26 8 8 -8 15 -19 15 -25 0 -6 5 -11 12 -11
6 0 8 -3 5 -6 -3 -4 -2 -15 3 -25 15 -28 -9 -29 -64 -1 -41 21 -61 24 -138 23
-50 -1 -94 -3 -97 -6 -4 -2 -21 -7 -37 -10 -38 -8 -58 -13 -61 -15 -2 -2 -7
-4 -13 -5 -5 -1 -13 -4 -17 -5 -5 -1 -11 -2 -15 -1 -5 0 -8 -4 -8 -11 0 -6 -3
-9 -6 -5 -8 8 -120 -48 -130 -65 -4 -6 -2 -14 4 -16 7 -2 10 -8 6 -13 -3 -5 0
-9 5 -9 6 0 11 -5 11 -11 0 -6 15 -30 32 -53 36 -45 138 -149 138 -140 0 3 7
-1 15 -8 33 -30 41 -34 54 -30 8 3 11 0 7 -7 -6 -10 19 -16 47 -12 4 0 7 -3 7
-8 0 -24 210 -44 295 -28 94 18 167 38 182 50 8 6 18 4 28 -6 17 -17 20 -31 5
-22 -5 3 -10 2 -10 -2 0 -5 -12 -8 -27 -7 -16 1 -32 -1 -38 -5 -5 -3 -21 -7
-35 -9 -13 -2 -30 -8 -37 -14 -7 -6 -13 -8 -13 -5 0 9 -102 -44 -124 -65 -11
-10 -23 -18 -27 -18 -5 0 -19 -11 -33 -25 -14 -14 -29 -25 -34 -25 -5 0 -15
-11 -22 -25 -7 -13 -16 -22 -20 -20 -4 2 -13 -6 -20 -19 -11 -21 -9 -27 9 -45
12 -12 26 -21 31 -21 6 0 13 -7 16 -15 4 -8 10 -15 14 -15 5 0 26 -12 48 -26
22 -15 43 -25 46 -23 3 2 12 -5 20 -16 8 -11 18 -17 22 -13 4 4 13 3 20 -2 6
-6 20 -13 30 -15 11 -2 34 -8 53 -14 49 -15 239 -6 257 11 3 4 12 4 20 1 8 -3
14 0 14 7 0 6 8 10 18 8 9 -1 35 8 57 22 22 13 43 23 48 22 4 -1 7 3 7 10 0 6
3 8 6 5 4 -3 18 3 32 13 27 22 36 21 27 -2 -3 -8 -26 -23 -51 -33 -25 -10 -55
-29 -67 -42 -12 -12 -25 -23 -29 -23 -19 0 -168 -173 -168 -194 0 -9 83 -59
97 -59 7 0 14 -6 17 -14 3 -7 12 -13 19 -13 8 0 32 -8 53 -17 22 -9 44 -18 49
-19 6 -1 24 -5 40 -9 54 -13 179 -12 228 2 26 8 53 11 59 7 7 -4 8 -3 4 4 -5
8 0 12 13 12 12 0 21 4 21 10 0 5 3 10 8 9 15 -2 52 14 52 22 0 5 7 9 15 9 8
0 15 3 15 8 0 9 58 42 74 42 7 0 43 -16 81 -35 77 -38 126 -59 138 -56 4 0 7
-4 7 -9 0 -5 3 -9 7 -8 5 1 19 -3 33 -9 14 -6 42 -18 64 -27 21 -9 42 -13 47
-10 5 3 9 0 9 -6 0 -6 4 -8 10 -5 5 3 10 1 10 -6 0 -7 2 -10 5 -7 3 3 39 -5
80 -17 41 -13 75 -21 75 -18 0 3 7 0 15 -7 9 -7 18 -10 21 -8 3 3 26 -1 52 -9
26 -8 63 -17 82 -19 82 -10 95 -12 95 -14 0 -3 64 -10 110 -12 22 0 44 -6 48
-12 6 -8 10 -8 13 1 4 9 13 9 30 2 16 -6 32 -5 43 1 10 5 21 6 25 2 10 -9 138
-10 157 -1 9 5 21 3 28 -4 9 -9 14 -9 20 2 7 10 13 11 31 1 13 -7 20 -8 16 -1
-4 6 4 9 24 6 16 -2 32 1 36 6 3 5 10 7 15 3 5 -3 17 0 26 8 13 10 15 10 9 0
-6 -10 -1 -11 21 -7 15 3 43 8 62 11 19 3 45 10 58 15 15 6 23 5 23 -2 0 -8 5
-8 14 1 8 6 27 13 43 14 15 2 48 9 73 16 56 16 60 18 86 23 11 3 37 12 59 21
21 9 40 14 43 11 3 -3 12 1 20 7 7 7 24 14 35 15 12 2 26 8 31 13 6 6 15 10
22 10 6 0 56 21 110 47 55 26 103 47 107 48 4 0 12 7 17 15 5 8 10 12 10 8 0
-4 11 -3 24 2 18 7 26 5 30 -6 3 -8 11 -14 17 -14 6 0 20 -9 30 -21 9 -11 19
-19 21 -18 6 5 68 -26 68 -34 0 -5 4 -6 8 -3 5 3 20 -1 35 -9 51 -26 211 -40
272 -23 17 5 43 11 58 13 15 3 36 10 45 15 9 5 35 17 57 26 22 10 42 21 45 24
3 3 17 11 33 17 15 7 27 17 27 23 0 5 7 10 16 10 15 0 14 3 -1 28 -10 15 -31
39 -46 54 -16 16 -27 28 -24 28 2 0 -16 20 -41 45 -24 25 -47 45 -50 45 -8 0
-69 44 -72 53 -2 4 -13 7 -25 7 -27 1 -51 19 -55 42 -2 14 1 15 28 5 16 -6 30
-15 30 -19 0 -4 8 -8 18 -8 9 0 28 -9 42 -20 14 -11 33 -20 43 -20 9 0 17 -4
17 -10 0 -5 3 -9 8 -9 4 1 9 0 12 -1 6 -2 21 -6 75 -19 49 -12 225 -10 225 2
0 5 7 7 15 3 8 -3 15 -2 15 3 0 4 7 8 15 8 22 0 99 36 108 50 4 7 15 13 23 13
16 0 97 61 125 94 15 18 13 22 -37 73 -30 29 -56 53 -59 53 -3 0 -15 9 -27 20
-12 11 -34 26 -50 32 -15 7 -28 17 -28 21 0 5 -4 5 -10 2 -5 -3 -10 -1 -10 6
0 7 -3 10 -6 6 -4 -3 -13 0 -20 8 -8 8 -21 12 -29 9 -8 -3 -24 1 -36 9 -12 9
-28 13 -35 10 -8 -3 -14 -1 -14 4 0 5 -22 9 -49 8 -48 -1 -49 0 -35 19 14 21
54 33 54 16 0 -6 14 -10 30 -10 17 0 38 -4 48 -9 46 -25 85 -31 207 -32 45 0
104 7 135 16 30 9 61 16 68 17 6 1 12 5 12 10 0 4 8 8 18 8 10 0 28 9 40 20
12 11 25 20 29 20 5 0 15 9 23 19 7 11 16 19 19 18 3 -2 25 17 47 40 23 24 40
43 37 43 -3 0 7 14 21 31 14 17 26 34 26 38 0 4 9 16 19 28 10 11 16 24 13 30
-7 10 -81 49 -137 73 -16 7 -42 19 -57 27 -20 10 -28 11 -28 2 0 -8 -4 -8 -15
1 -8 7 -22 10 -30 6 -8 -3 -15 -2 -15 3 0 5 -42 9 -92 10 -80 1 -100 -2 -142
-23 -61 -30 -77 -26 -66 16 11 36 29 60 41 52 5 -3 9 1 9 8 0 10 2 10 9 -1 5
-8 20 -15 33 -17 12 -1 23 -3 23 -4 0 -2 128 -11 180 -12 50 -1 138 11 145 20
5 6 24 11 58 14 6 1 12 5 12 9 0 5 7 6 15 3 8 -4 15 -2 15 4 0 5 15 16 33 23
37 15 190 166 182 180 -4 5 -2 9 3 9 9 0 37 50 34 63 -1 4 2 7 7 7 8 0 29 44
36 75 2 6 -7 12 -18 12 -11 1 -23 6 -26 11 -7 10 -99 37 -123 36 -10 -1 -18 2
-18 5 0 14 -184 20 -216 6 -11 -4 -34 -9 -53 -11 -19 -2 -39 -8 -45 -14 -31
-31 -29 6 4 65 32 58 35 60 103 61 90 3 215 20 232 34 10 8 53 19 69 19 5 -1
12 5 17 13 5 7 12 13 16 13 27 2 116 74 170 138 21 26 74 125 78 148 3 12 8
25 12 28 5 3 9 15 11 26 6 40 10 60 12 60 2 0 4 10 5 23 1 12 -2 22 -7 22 -5
0 -7 4 -4 8 6 9 -2 10 -159 15 -66 2 -124 1 -130 -2 -5 -3 -17 -6 -25 -6 -21
-1 -92 -26 -106 -37 -20 -15 -52 -17 -58 -3 -3 8 -1 15 4 17 5 2 11 17 14 33
2 17 5 31 6 33 2 1 4 7 5 12 1 6 4 13 5 18 1 4 2 10 1 14 -1 7 20 14 65 23 10
2 19 4 19 5 0 2 37 9 63 12 6 1 12 5 12 9 0 5 7 6 15 3 8 -4 15 -2 15 3 0 5 6
10 14 10 32 0 152 80 216 144 38 39 69 73 68 77 -1 4 8 26 20 49 12 23 22 49
22 58 0 8 3 15 8 15 4 0 8 14 9 32 1 17 8 35 14 38 8 6 8 9 0 15 -8 4 -9 11
-3 18 5 7 8 22 7 35 -1 12 2 22 7 22 5 0 6 6 1 13 -11 17 -13 38 -3 32 5 -3 5
7 1 22 -7 26 -11 28 -64 28 -31 0 -57 -2 -57 -6 0 -3 -10 -5 -22 -4 -37 3
-137 -23 -189 -49 -26 -14 -50 -22 -53 -19 -3 4 -6 2 -6 -4 0 -6 -13 -16 -30
-23 -16 -7 -28 -16 -25 -20 4 -6 -16 -20 -30 -20 -2 0 -3 23 -3 51 -1 37 4 55
19 70 11 11 24 17 29 14 6 -4 10 -2 10 3 0 4 19 18 43 30 82 41 205 180 223
252 2 8 8 34 14 57 5 23 8 62 7 88 -2 26 1 49 5 51 5 3 5 11 1 17 -8 14 -12
30 -16 69 -1 16 -5 28 -9 28 -5 0 -8 9 -8 20 0 16 -5 20 -22 17 -43 -7 -108
-30 -108 -39 0 -4 -4 -7 -8 -5 -18 5 -103 -48 -152 -95 -39 -37 -55 -47 -61
-37 -4 8 -3 20 4 28 9 12 9 13 0 7 -25 -15 -13 24 14 47 74 60 153 150 179
203 33 67 37 87 37 169 0 89 -9 132 -46 207 -23 45 -41 54 -57 28 -5 -8 -10
-11 -10 -7 0 10 -71 -31 -82 -47 -4 -6 -8 -7 -8 -3 0 5 -14 -5 -31 -22 -17
-17 -35 -31 -40 -31 -6 0 -7 -4 -4 -10 3 -5 -1 -10 -10 -10 -9 0 -13 -4 -10
-10 3 -5 1 -10 -4 -10 -6 0 -11 -7 -11 -15 0 -8 -4 -15 -10 -15 -5 0 -10 -7
-10 -15 0 -8 -4 -15 -9 -15 -13 0 -32 26 -24 33 3 4 2 7 -4 7 -15 0 -22 44 -9
56 6 6 20 23 31 38 11 16 25 34 31 40 19 20 61 108 75 156 17 61 14 148 -6
212 -20 61 -93 185 -113 193 -8 3 -29 -4 -46 -15 -17 -11 -28 -20 -24 -20 4 0
-12 -18 -35 -40 -24 -21 -52 -57 -63 -80 -10 -22 -22 -40 -26 -40 -3 0 -9 -13
-13 -30 -7 -32 -16 -37 -33 -17 -15 17 -13 28 12 62 29 41 65 116 66 138 0 9
4 17 8 17 11 0 12 7 16 110 1 47 -2 94 -8 105 -5 11 -11 26 -12 33 -4 22 -34
81 -44 87 -6 4 -8 11 -5 16 4 5 -1 9 -9 9 -9 0 -15 4 -13 8 1 5 -13 25 -30 46
-18 20 -33 33 -33 29 0 -4 -5 -1 -10 7 -8 12 -17 7 -50 -29 -22 -24 -40 -48
-40 -53 0 -5 -4 -6 -10 -3 -5 3 -10 -1 -10 -9 0 -9 -5 -16 -11 -16 -5 0 -8 -4
-4 -9 3 -6 -3 -14 -12 -20 -10 -6 -15 -11 -11 -11 4 0 -1 -16 -12 -36 -11 -19
-16 -33 -11 -29 6 3 4 -7 -4 -22 -8 -15 -15 -38 -15 -50 0 -13 -3 -23 -7 -23
-11 1 -49 30 -39 30 5 0 3 7 -4 15 -7 8 -8 15 -3 15 5 0 15 15 22 33 28 65 39
97 34 97 -3 0 2 11 11 25 10 15 12 25 6 25 -6 0 -8 5 -5 11 10 16 13 129 4
129 -5 0 -6 7 -3 15 3 8 2 20 -2 27 -5 7 -9 18 -9 23 -2 26 -40 97 -58 110
-12 8 -18 15 -14 15 9 0 -78 86 -106 104 -20 14 -24 13 -44 -10 -12 -13 -18
-24 -15 -24 4 0 2 -4 -3 -8 -16 -11 -60 -91 -76 -137 -16 -49 -18 -56 -23
-123 -5 -63 -8 -68 -30 -47 -9 9 -16 13 -16 9 0 -4 -9 3 -20 16 -11 13 -20 19
-20 14 0 -5 -7 2 -16 15 -12 17 -13 26 -5 34 6 6 11 24 11 39 0 15 4 28 9 28
6 0 8 9 6 20 -2 11 -1 20 3 20 4 0 7 25 7 55 0 30 4 55 8 55 5 0 5 6 0 13 -4
6 -8 21 -9 32 -12 111 -96 231 -213 307 -51 32 -61 34 -61 13 0 -8 -4 -15 -8
-15 -10 0 -44 -69 -42 -84 1 -5 -3 -12 -9 -15 -5 -4 -12 -18 -15 -31 -3 -14
-7 -34 -10 -46 -8 -39 -10 -103 -3 -110 4 -4 2 -13 -4 -21 -9 -10 -8 -13 1
-13 8 0 11 -3 7 -6 -3 -3 1 -23 8 -44 12 -33 11 -39 -1 -44 -8 -3 -14 -1 -14
4 0 5 -10 12 -22 16 -16 4 -33 26 -52 66 -34 70 -101 143 -168 182 -60 35 -99
47 -170 51 -32 2 -63 7 -69 11 -7 4 -9 3 -5 -4 4 -7 -1 -10 -14 -9 -11 1 -20
5 -20 10 0 6 -5 5 -12 0 -7 -5 -24 -10 -38 -11 -49 -2 -88 -13 -100 -27 -8 -9
-8 -15 -2 -15 9 0 26 -50 22 -66 -1 -4 5 -11 14 -16 9 -5 16 -17 16 -27 0 -9
9 -27 20 -39 11 -12 20 -24 20 -27 0 -12 113 -114 121 -110 4 3 10 -2 13 -11
3 -8 10 -12 16 -9 5 3 10 1 10 -4 0 -6 11 -11 23 -11 13 0 27 -3 31 -7 8 -8
10 -9 44 -13 11 -1 12 -3 4 -7 -6 -2 -10 -9 -6 -14 3 -5 -1 -9 -8 -9 -15 0
-88 -62 -88 -74 0 -5 25 -33 55 -62 30 -30 55 -51 55 -47 0 3 8 -1 18 -9 19
-18 102 -61 102 -54 0 3 15 -1 33 -8 36 -14 46 -14 65 -3 6 5 12 4 12 -1 0
-12 87 -7 124 8 22 8 32 8 40 -1 8 -9 8 -10 -1 -5 -7 4 -13 2 -13 -4 0 -6 -4
-8 -10 -5 -5 3 -10 1 -10 -5 0 -6 -4 -9 -9 -5 -5 3 -22 -6 -38 -19 -25 -22
-26 -26 -15 -48 27 -51 128 -146 187 -176 69 -36 89 -43 128 -47 41 -4 42 -10
3 -34 -33 -21 -39 -45 -15 -61 4 -3 9 -12 11 -19 4 -19 22 -41 88 -106 72 -72
87 -84 94 -78 3 4 15 -2 26 -12 11 -10 23 -15 27 -12 3 4 12 2 19 -4 8 -6 29
-11 49 -11 26 0 35 -4 35 -17 0 -12 -8 -17 -27 -16 -40 3 -96 -22 -86 -38 4
-6 8 -17 9 -23 2 -12 34 -78 55 -113 28 -48 40 -62 109 -122 26 -22 78 -45 93
-41 5 1 6 -2 2 -8 -3 -5 0 -11 7 -11 7 -1 0 -4 -16 -8 -31 -6 -45 -39 -23 -53
9 -6 8 -8 -2 -8 -9 0 -10 -4 -4 -12 6 -7 9 -21 8 -30 -2 -10 0 -18 4 -18 4 0
7 -8 8 -17 1 -10 7 -31 14 -48 7 -16 12 -33 11 -37 -1 -5 3 -8 10 -8 6 0 9 -3
5 -6 -3 -3 -2 -11 3 -18 55 -68 89 -104 94 -99 3 4 6 1 6 -5 0 -7 6 -12 14
-12 8 0 17 -7 20 -16 3 -8 10 -12 16 -9 5 3 10 2 10 -4 0 -10 38 -27 53 -23 4
1 7 -3 7 -9 0 -6 7 -9 15 -5 8 3 15 1 15 -4 0 -6 11 -10 25 -10 15 0 39 -7 55
-15 23 -12 30 -13 30 -3 1 8 7 5 15 -6 10 -13 15 -15 15 -6 0 28 13 -1 15 -35
2 -24 -1 -35 -11 -35 -8 0 -14 7 -14 15 0 8 -4 15 -8 15 -5 0 -19 9 -32 20
-12 11 -26 17 -30 15 -5 -3 -10 -1 -12 4 -1 5 -16 11 -33 13 -16 2 -45 12 -63
21 -18 10 -37 15 -42 12 -5 -3 -11 -1 -14 4 -4 5 -14 8 -24 6 -9 -1 -22 2 -29
7 -7 5 -14 5 -18 -1 -4 -7 -12 -7 -25 1 -21 14 -29 10 -34 -18 -2 -11 -5 -23
-6 -29 -1 -5 -1 -12 0 -15 1 -3 4 -30 5 -60 4 -55 11 -105 14 -105 2 0 5 -9 7
-20 9 -37 10 -40 16 -50 3 -5 15 -27 27 -48 l21 -37 -28 6 c-15 4 -30 11 -33
17 -6 8 -25 -36 -36 -80 -2 -7 -5 -21 -7 -30 -3 -10 -5 -18 -6 -18 -4 0 -13
-93 -13 -130 -1 -70 6 -130 15 -142 6 -7 7 -17 3 -23 -3 -5 -1 -10 6 -10 7 0
9 -3 6 -6 -7 -7 31 -84 46 -95 5 -3 8 -10 6 -14 -1 -4 13 -24 32 -43 19 -20
28 -32 20 -27 -9 5 -12 4 -7 -3 4 -6 12 -9 19 -6 7 2 19 -7 27 -20 7 -14 17
-23 22 -20 4 3 8 0 8 -6 0 -13 30 -46 30 -33 0 4 6 1 13 -7 17 -21 53 -48 43
-32 -10 16 2 15 19 -2 8 -7 11 -16 8 -20 -4 -3 -1 -6 6 -6 21 0 38 -24 34 -50
-2 -14 -4 -31 -5 -38 -2 -15 -39 -12 -39 3 0 6 -7 21 -16 34 -8 13 -11 21 -6
18 5 -3 9 3 9 13 0 11 -2 17 -5 15 -7 -8 -61 29 -61 42 0 7 -4 13 -9 13 -12 0
-61 47 -61 59 0 5 -9 13 -20 16 -11 3 -20 10 -20 15 0 9 -92 66 -99 61 -2 -1
-7 3 -11 9 -8 13 -64 -78 -75 -122 -4 -16 -11 -28 -15 -28 -7 0 -19 -43 -22
-80 0 -8 -4 -19 -8 -25 -10 -14 -10 -176 1 -196 7 -15 18 -56 22 -88 1 -8 -4
-16 -12 -19 -8 -2 -11 -1 -9 4 3 5 -5 19 -17 32 l-22 23 -46 -58 c-26 -32 -50
-62 -54 -68 -5 -5 -20 -35 -34 -65 -44 -92 -51 -121 -54 -232 -1 -49 0 -88 4
-88 4 0 8 -14 9 -31 1 -17 9 -43 17 -59 8 -15 11 -30 8 -34 -4 -3 -1 -6 5 -6
7 0 12 -9 12 -20 0 -11 4 -20 8 -20 5 0 14 -16 22 -35 7 -19 17 -32 22 -29 4
3 8 -1 8 -8 0 -8 18 -33 40 -57 42 -45 46 -51 30 -51 -9 0 -57 49 -90 91 -8
11 -34 41 -57 65 -24 25 -43 49 -43 55 0 6 -4 8 -9 4 -5 -3 -12 4 -16 15 -3
11 -13 20 -21 20 -8 0 -14 5 -14 10 0 6 -4 10 -10 10 -5 0 -10 -6 -10 -13 0
-21 -30 -77 -41 -77 -5 0 -8 -3 -7 -7 3 -10 -55 -127 -64 -131 -5 -2 -8 -10
-8 -17 0 -8 -7 -20 -15 -29 -9 -8 -15 -19 -15 -23 1 -12 -44 -82 -52 -83 -5 0
-8 -4 -8 -10 0 -5 -10 -21 -22 -36 -13 -14 -23 -29 -23 -32 0 -4 -14 -21 -30
-38 -17 -18 -41 -47 -55 -65 -14 -18 -48 -56 -77 -85 -28 -29 -49 -55 -45 -58
3 -3 0 -6 -6 -6 -7 0 -30 -18 -52 -40 -22 -22 -44 -40 -49 -40 -5 0 -13 -9
-16 -20 -4 -11 -10 -18 -15 -15 -5 3 -10 2 -12 -2 -5 -12 -108 -96 -108 -89 0
4 -12 -4 -27 -18 -15 -14 -30 -23 -35 -20 -4 3 -8 1 -8 -4 0 -10 -71 -56 -79
-52 -2 1 -7 -3 -10 -8 -8 -12 -113 -67 -123 -64 -5 1 -8 -3 -8 -8 0 -6 -4 -10
-10 -10 -5 0 -35 -12 -67 -26 -31 -15 -62 -27 -67 -29 -6 -1 -20 -6 -31 -10
-11 -4 -35 -14 -54 -22 -19 -7 -36 -11 -39 -8 -3 3 -10 1 -16 -4 -11 -9 -55
-21 -83 -23 -7 -1 -13 -4 -13 -8 0 -3 -8 -6 -17 -6 -10 -1 -34 -4 -53 -8 -19
-4 -46 -9 -60 -11 -14 -1 -25 -4 -25 -5 0 -1 -16 -3 -35 -5 -19 -2 -35 -4 -35
-5 0 -2 -128 -10 -218 -13 -37 -1 -67 2 -67 8 0 5 -5 4 -11 -2 -6 -6 -26 -7
-47 -4 -20 4 -56 6 -79 6 -24 0 -43 2 -43 5 0 3 -26 6 -57 8 -32 1 -60 6 -63
11 -3 4 -14 7 -25 5 -11 -2 -23 2 -27 9 -6 9 -8 9 -8 -1 0 -9 -5 -10 -19 -3
-10 6 -21 7 -25 4 -3 -3 -6 -1 -6 6 0 7 -4 10 -8 7 -5 -3 -26 0 -48 6 -21 6
-42 11 -46 10 -5 -1 -8 2 -8 8 0 5 -7 7 -15 4 -8 -4 -21 -1 -28 5 -8 6 -22 12
-33 15 -62 12 -84 19 -84 27 0 5 -3 8 -7 7 -18 -6 -273 111 -273 125 0 4 -4 6
-9 2 -5 -3 -17 2 -25 11 -9 8 -16 12 -16 7 0 -4 -4 -3 -8 2 -4 6 -24 19 -44
30 -21 11 -38 23 -38 27 0 5 -5 8 -11 8 -5 0 -45 26 -87 57 -97 72 -92 68
-162 133 -33 30 -70 63 -82 73 -12 9 -19 17 -16 17 3 0 -13 19 -36 43 -23 23
-65 74 -94 112 -28 39 -56 75 -62 82 -5 7 -10 17 -10 23 0 5 -4 10 -9 10 -5 0
-11 8 -14 18 -7 22 -39 75 -50 83 -5 3 -8 9 -8 13 1 3 -15 40 -34 81 -20 41
-36 78 -36 82 -1 5 -5 13 -10 20 -9 11 -19 48 -22 85 -1 9 -6 16 -12 15 -18
-3 -176 -173 -168 -181 3 -2 -5 -9 -16 -16 -12 -6 -19 -15 -16 -21 4 -5 1 -9
-4 -9 -6 0 -11 -7 -11 -16 0 -8 -5 -12 -10 -9 -6 3 -13 -2 -17 -12 -9 -26 -34
-53 -49 -53 -8 0 -11 6 -7 16 3 8 11 13 19 10 8 -3 11 2 9 14 -2 11 3 26 11
34 8 8 14 17 14 21 0 3 16 22 35 42 19 20 40 51 47 69 7 19 16 34 21 34 5 0 7
6 4 14 -3 8 -2 16 2 18 14 5 49 136 40 149 -4 7 -4 18 0 24 6 9 7 71 1 78 -1
1 -3 13 -5 27 -7 52 -16 81 -46 145 -16 36 -34 65 -39 65 -6 0 -10 8 -10 18 0
9 -9 23 -21 30 -12 7 -19 15 -16 18 2 2 -8 18 -22 33 -26 29 -26 29 -47 10
-28 -27 -48 -25 -40 4 4 12 9 29 11 37 2 8 4 15 5 15 4 0 11 67 13 128 1 37
-1 67 -4 67 -4 0 -9 15 -12 33 -8 54 -15 75 -41 126 -13 27 -22 52 -19 55 4 3
1 6 -5 6 -7 0 -12 6 -12 13 0 8 -9 22 -20 32 -12 11 -20 13 -20 6 0 -7 -4 -9
-10 -6 -5 3 -10 2 -10 -2 0 -5 -21 -20 -47 -33 -27 -14 -56 -34 -65 -44 -10
-10 -18 -15 -18 -10 0 5 -8 -4 -19 -21 -10 -16 -34 -43 -54 -59 -20 -17 -34
-34 -31 -38 3 -4 0 -8 -5 -8 -6 0 -11 -7 -11 -15 0 -8 -4 -15 -10 -15 -5 0 -9
-3 -8 -7 1 -5 -4 -21 -11 -37 -9 -22 -14 -26 -25 -17 -7 6 -12 21 -11 33 1 13
-5 29 -14 36 -9 8 -11 11 -5 8 7 -3 15 1 18 10 4 10 14 14 26 11 11 -3 17 -1
14 4 -3 5 2 12 10 15 9 3 13 10 10 15 -3 5 3 9 13 9 11 0 34 11 53 25 19 14
31 25 27 25 -4 0 22 29 58 65 58 58 124 163 117 188 -1 4 2 7 7 7 4 0 7 11 6
25 -2 14 0 25 5 25 10 0 6 215 -5 250 -4 14 -12 30 -16 36 -5 6 -6 13 -3 17 3
3 -2 22 -12 42 -10 23 -20 32 -24 25 -4 -7 -18 -10 -31 -8 -22 3 -22 4 -5 21
10 9 14 17 9 17 -4 0 -2 4 5 9 7 4 14 18 15 29 1 12 5 22 9 22 4 0 7 3 7 8 -1
4 0 10 1 15 22 66 32 203 16 225 -5 8 -4 12 5 12 10 1 10 3 -2 10 -9 5 -27 7
-40 4 -13 -3 -49 -7 -79 -9 -77 -5 -107 -15 -149 -47 -13 -10 -27 -16 -31 -13
-4 3 -11 -2 -14 -11 -3 -8 -9 -13 -13 -11 -10 6 -40 -25 -33 -33 3 -3 -5 -6
-18 -8 -23 -4 -27 15 -7 30 6 5 4 8 -5 8 -13 0 -13 1 0 10 9 6 11 10 3 10 -7
0 -10 7 -7 15 4 8 10 12 15 9 5 -3 9 -1 9 5 0 7 8 7 25 1 15 -6 26 -6 30 0 4
6 19 10 36 10 16 0 29 4 29 8 0 5 7 9 15 10 8 1 22 3 30 4 8 1 15 5 15 10 0 5
4 7 9 4 5 -3 25 5 45 19 20 14 39 25 43 25 10 0 112 114 115 127 5 28 12 43
19 43 5 0 8 3 7 8 -1 4 5 27 12 52 7 25 13 49 12 53 -2 5 2 24 7 43 7 27 7 34
-5 34 -8 0 -14 6 -14 13 0 9 -2 9 -9 -1 -7 -11 -9 -11 -14 2 -6 14 4 21 26 17
4 0 7 2 7 7 0 4 12 13 28 19 30 14 131 103 116 103 -5 0 -1 5 9 11 9 5 17 17
17 24 0 8 4 15 9 15 10 0 27 39 23 53 -1 4 3 7 8 7 5 0 10 3 9 8 -2 15 14 52
23 52 5 0 3 7 -6 15 -8 8 -19 15 -25 15 -6 0 -11 3 -11 8 0 4 -15 8 -32 9 -53
4 -59 6 -55 17 2 5 14 11 28 13 69 7 87 12 124 33 22 12 46 27 53 32 6 6 12 8
12 5 0 -3 23 18 50 46 28 28 50 55 50 59 0 5 9 17 20 28 12 12 18 25 15 29 -2
5 2 12 11 15 9 4 14 9 11 13 -4 3 -2 12 5 20 6 8 7 13 2 12 -5 -1 -21 3 -36 9
-29 12 -38 31 -15 33 58 6 80 12 88 22 3 4 15 9 27 12 50 9 177 124 226 203 8
13 -17 45 -28 35 -3 -4 -6 -1 -6 6 0 7 -4 9 -10 6 -5 -3 -10 -2 -10 4 0 6 -7
8 -15 5 -11 -5 -13 -2 -9 10 4 11 13 15 26 10 36 -11 53 -12 66 -1 8 6 12 6
12 -1 0 -10 94 -7 111 4 5 3 22 8 37 10 15 3 29 9 30 15 2 5 7 7 12 4 4 -2 18
4 30 15 13 11 28 20 34 20 6 0 19 8 28 18 9 9 32 31 51 49 19 17 38 36 42 42
7 12 -35 53 -78 77 -27 15 -28 16 -11 29 11 7 22 11 26 9 5 -3 8 0 8 6 0 7 7
10 15 6 8 -3 15 -1 15 4 0 6 3 10 8 9 16 -2 52 14 52 24 0 6 3 7 7 4 3 -4 25
12 47 35 23 23 42 41 44 40 1 -1 2 0 2 3 0 2 12 16 25 31 13 14 27 36 31 48 4
11 10 23 13 26 12 9 50 119 43 124 -12 7 -85 18 -144 21 -31 1 -61 6 -67 9 -6
4 -11 3 -11 -2 0 -5 -20 -9 -45 -7 -25 1 -45 -2 -45 -7 0 -5 -4 -7 -9 -4 -5 3
-39 -10 -77 -28 -73 -36 -174 -130 -174 -162 0 -9 -3 -14 -6 -11 -4 4 -17 -16
-30 -44 -13 -28 -28 -48 -33 -45 -5 4 -11 1 -13 -5 -2 -7 -13 -9 -27 -4 -13 4
-19 10 -14 14 12 7 24 54 26 96 0 17 5 33 11 37 7 5 7 8 1 8 -5 0 -10 17 -10
38 0 20 -2 42 -6 47 -4 6 -12 28 -19 50 -7 22 -19 52 -27 67 -7 15 -14 31 -15
35 -3 11 -32 43 -38 42 -3 0 -14 -6 -25 -12z m-91 -708 c-3 -5 2 -9 11 -9 9 0
23 -7 32 -15 8 -8 20 -12 26 -8 7 3 8 2 4 -3 -13 -14 -79 -15 -70 -1 4 7 -1 6
-10 -2 -14 -11 -21 -11 -42 3 -15 10 -22 22 -19 31 4 8 9 13 13 11 4 -3 13 -1
21 4 16 10 42 2 34 -11z m3505 -8 c9 -15 7 -20 -9 -24 -11 -3 -22 -1 -25 3 -3
5 -17 2 -32 -5 -28 -15 -59 -3 -47 17 4 6 10 6 16 0 7 -7 16 -4 29 9 24 24 55
24 68 0z m-3873 -336 c9 -8 14 -15 12 -16 -13 -3 -68 -7 -68 -4 0 5 31 35 36
35 3 0 12 -7 20 -15z m4229 -3 c8 -23 -2 -27 -30 -12 -15 8 -21 16 -15 20 18
11 39 7 45 -8z m-4451 -366 c16 0 31 -7 34 -15 3 -10 0 -12 -12 -8 -9 4 -16 3
-16 -1 0 -4 -19 -8 -42 -8 -28 -1 -46 -7 -55 -19 -14 -20 -14 -20 -18 12 -1
12 4 24 12 27 8 3 11 11 8 16 -4 7 5 8 27 4 18 -3 46 -7 62 -8z m4676 2 c31 4
60 -15 60 -41 0 -22 -11 -27 -27 -12 -8 8 -23 15 -34 15 -10 0 -19 6 -19 13 0
7 -3 8 -8 2 -8 -12 -37 -13 -48 -2 -5 4 2 10 14 14 12 3 22 10 23 17 0 7 2 7
5 0 2 -6 18 -9 34 -6z m256 -454 c-5 -14 -9 -15 -15 -5 -5 7 -12 13 -17 12
-23 -1 -53 12 -58 25 -7 17 5 18 23 2 11 -11 12 -10 6 1 -6 11 -4 13 8 8 10
-4 17 -1 17 6 0 6 10 2 21 -10 15 -14 19 -27 15 -39z m-5156 30 c0 -12 -36
-30 -52 -26 -5 1 -8 -2 -8 -8 0 -5 -4 -10 -10 -10 -15 0 -12 21 5 40 19 21 65
23 65 4z m-182 -995 c-7 -20 -14 -27 -20 -21 -6 6 -6 17 1 31 18 32 31 25 19
-10z m5468 1 c0 -25 -22 -26 -36 -1 -7 14 -6 21 3 24 20 7 33 -2 33 -23z
m-311 -1140 c16 0 12 -54 -6 -76 -15 -19 -29 -8 -23 19 5 27 -4 59 -15 52 -7
-4 -8 15 -2 50 1 6 9 -2 17 -17 8 -16 21 -28 29 -28z m-4825 14 c-6 -6 -7 -14
-3 -17 3 -4 1 -7 -6 -7 -7 0 -9 -4 -6 -10 3 -5 2 -10 -4 -10 -5 0 -8 -11 -7
-25 4 -28 -15 -29 -28 0 -15 34 -15 42 3 41 9 0 15 5 14 12 -2 6 2 12 8 12 5
0 8 4 4 9 -3 6 3 9 14 8 14 -1 17 -5 11 -13z"/>
<path d="M3398 5821 c4 -10 1 -13 -11 -8 -10 4 -16 2 -14 -6 1 -7 -8 -11 -23
-9 -19 2 -22 0 -10 -8 13 -8 13 -10 -2 -10 -12 0 -15 -5 -11 -17 4 -11 3 -14
-6 -9 -6 4 -18 2 -26 -4 -8 -7 -23 -9 -32 -6 -10 4 -14 4 -10 0 4 -4 1 -14 -6
-23 -11 -14 -10 -15 8 -1 19 14 19 14 6 -3 -11 -14 -16 -15 -29 -5 -13 11 -14
11 -7 -1 6 -11 4 -13 -8 -8 -9 3 -19 1 -23 -5 -4 -7 -3 -8 4 -4 7 4 12 3 12
-1 0 -5 -9 -14 -21 -21 -12 -8 -18 -9 -15 -3 4 5 2 13 -4 16 -6 4 -9 1 -8 -7
2 -7 -5 -12 -15 -12 -13 2 -15 -1 -7 -11 8 -9 6 -14 -5 -19 -9 -3 -13 -2 -10
4 3 6 1 10 -4 10 -6 0 -11 -7 -11 -16 0 -10 -5 -14 -16 -10 -10 4 -13 2 -8 -6
5 -8 -2 -9 -22 -4 -16 4 -24 3 -19 -1 17 -13 15 -31 -3 -28 -9 1 -25 -6 -36
-17 -11 -12 -27 -18 -41 -15 -15 2 -22 0 -19 -8 6 -15 -41 -36 -63 -29 -15 5
-16 4 -3 -5 14 -10 8 -15 -13 -12 -4 1 -10 -6 -13 -14 -5 -12 -9 -13 -20 -4
-8 7 -17 9 -21 5 -3 -3 -1 -6 5 -6 7 0 12 -4 12 -8 0 -5 -13 -8 -30 -7 -26 2
-28 0 -17 -14 8 -10 8 -13 0 -8 -6 4 -14 3 -18 -2 -3 -5 -14 -8 -25 -6 -12 2
-18 0 -15 -6 4 -5 -2 -12 -12 -15 -10 -3 -26 -10 -37 -15 -14 -8 -17 -7 -11 3
3 7 0 5 -8 -5 -11 -14 -16 -15 -20 -5 -3 8 -6 6 -6 -6 -1 -16 -3 -17 -18 -5
-14 12 -16 12 -8 0 6 -11 4 -13 -9 -8 -10 4 -15 3 -11 -3 7 -11 -39 -25 -54
-16 -5 4 -13 1 -17 -5 -5 -8 -3 -9 6 -4 9 5 11 4 6 -4 -4 -6 -12 -9 -17 -6 -5
4 -9 1 -9 -6 0 -9 -3 -9 -14 0 -11 9 -16 9 -23 -2 -4 -8 -18 -16 -31 -20 -20
-5 -22 -3 -10 11 7 9 -1 5 -19 -7 -20 -15 -40 -22 -56 -19 -18 4 -24 1 -20 -9
3 -7 0 -13 -6 -13 -6 0 -11 6 -11 13 -1 8 -4 7 -13 -3 -7 -8 -21 -15 -32 -14
-11 0 -26 -5 -34 -10 -11 -8 -13 -8 -8 0 3 6 0 11 -8 11 -8 0 -12 -4 -9 -9 3
-4 -2 -8 -11 -8 -10 0 -14 5 -10 13 4 6 0 4 -8 -5 -16 -21 -32 -24 -21 -5 4 6
-2 4 -14 -6 -12 -12 -26 -16 -34 -11 -20 13 -49 12 -38 -1 6 -7 3 -11 -10 -11
-10 0 -17 4 -14 7 2 4 0 10 -6 14 -5 3 -10 -1 -10 -9 0 -9 -7 -16 -16 -16 -8
0 -12 5 -9 10 9 15 -4 12 -21 -5 -14 -13 -49 -10 -40 4 3 4 -13 7 -34 6 -21 0
-38 -4 -37 -10 2 -11 -7 -11 -37 1 -13 5 -17 4 -12 -4 5 -8 2 -10 -8 -6 -9 3
-13 11 -10 16 4 6 -5 3 -19 -6 -23 -16 -25 -16 -31 0 -5 13 -10 14 -18 6 -6
-6 -17 -8 -26 -5 -11 5 -13 3 -7 -8 8 -12 6 -12 -9 0 -14 12 -19 12 -29 1 -10
-10 -9 -11 3 -5 12 6 12 5 3 -5 -6 -7 -9 -19 -6 -28 5 -11 3 -13 -8 -7 -11 7
-12 6 -2 -6 7 -9 9 -20 3 -29 -6 -9 -4 -20 3 -29 10 -12 9 -14 -6 -8 -11 4
-16 3 -12 -4 4 -5 8 -21 10 -35 2 -19 -1 -24 -13 -19 -11 4 -12 2 -4 -8 9 -10
8 -17 -1 -27 -9 -10 -9 -11 1 -6 6 4 12 2 12 -3 0 -6 -5 -11 -11 -11 -5 0 -7
-5 -4 -10 4 -6 1 -18 -7 -27 -7 -9 -8 -14 -2 -10 17 10 26 -20 11 -35 -7 -7
-11 -29 -10 -48 1 -19 -3 -43 -9 -53 -8 -15 -7 -18 4 -11 10 6 11 5 2 -7 -5
-8 -10 -21 -9 -29 1 -8 -3 -23 -8 -34 -6 -13 -6 -16 2 -12 6 4 11 3 11 -3 0
-5 -8 -12 -17 -14 -16 -4 -15 -5 1 -6 20 -1 20 -1 0 -17 -10 -8 -13 -13 -6 -9
7 4 12 0 12 -9 0 -8 -6 -17 -12 -19 -10 -4 -10 -6 0 -6 6 -1 12 -6 12 -12 0
-5 -4 -8 -8 -5 -5 3 -9 -1 -9 -9 0 -8 5 -12 10 -8 5 3 4 -4 -2 -16 -7 -11 -9
-21 -5 -21 3 0 0 -8 -7 -17 -8 -9 -9 -14 -3 -10 18 10 25 -20 9 -36 -10 -11
-11 -17 -3 -25 8 -8 7 -13 -6 -18 -14 -5 -15 -9 -4 -15 11 -7 10 -11 -2 -19
-13 -8 -12 -10 3 -10 10 0 15 -5 12 -10 -4 -6 -12 -7 -18 -3 -9 5 -9 3 -1 -8
12 -16 17 -62 5 -55 -4 3 -8 -1 -8 -9 0 -8 4 -15 9 -15 4 0 8 -5 8 -11 0 -5
-4 -8 -9 -5 -5 4 -6 -8 -1 -27 7 -35 -9 -74 -25 -59 -5 4 -5 1 -1 -6 4 -7 10
-10 14 -8 4 2 7 -33 7 -79 0 -53 -4 -81 -10 -77 -5 3 -4 -1 2 -9 10 -12 10
-18 1 -27 -9 -9 -9 -12 0 -12 15 0 12 -51 -3 -62 -6 -5 -5 -8 4 -8 10 0 11 -3
2 -14 -9 -10 -9 -16 -1 -21 8 -5 8 -10 0 -20 -8 -10 -8 -15 1 -21 9 -5 8 -10
-5 -19 -15 -11 -15 -13 -1 -19 13 -5 14 -10 4 -27 -8 -15 -8 -19 0 -15 7 5 11
-1 11 -14 0 -14 -4 -19 -12 -14 -10 6 -10 4 0 -7 6 -7 12 -20 12 -28 0 -14 -1
-14 -10 -1 -5 8 -10 11 -10 6 0 -5 8 -18 18 -29 9 -11 12 -17 6 -14 -7 4 -14
0 -17 -8 -4 -10 -1 -12 10 -8 13 5 14 3 4 -15 -8 -15 -8 -22 -1 -22 6 0 9 -12
7 -27 -2 -16 0 -36 5 -47 7 -12 7 -16 0 -12 -5 3 -12 -1 -16 -9 -3 -8 0 -17 6
-21 7 -5 8 -2 3 6 -5 8 -4 11 2 7 11 -7 11 -57 -1 -75 -4 -7 -2 -10 6 -7 16 6
18 -31 4 -54 -6 -9 -5 -12 1 -8 15 9 23 -39 9 -54 -8 -9 -8 -10 3 -4 10 6 12
2 6 -14 -3 -11 -2 -21 3 -21 14 0 21 -92 9 -108 -7 -9 -6 -11 7 -6 9 3 16 2
16 -4 0 -6 3 -18 7 -28 4 -11 3 -15 -4 -11 -7 5 -9 0 -6 -13 3 -11 9 -18 13
-15 4 3 8 -5 9 -18 1 -43 4 -57 15 -57 6 0 5 -5 -2 -12 -7 -7 -12 -17 -12 -22
0 -6 5 -4 10 4 8 13 10 12 11 -5 1 -11 1 -26 0 -34 -2 -7 2 -10 8 -6 15 9 14
-8 -1 -24 -11 -10 -10 -11 5 -5 13 5 16 2 11 -10 -3 -9 -1 -16 5 -16 6 0 11
-5 11 -11 0 -5 -4 -7 -10 -4 -15 9 -12 -4 4 -20 7 -8 17 -11 22 -7 5 4 2 -1
-5 -10 -10 -13 -10 -18 -2 -18 7 0 10 -4 7 -9 -3 -5 1 -12 10 -15 8 -3 12 -10
9 -16 -4 -6 -12 -8 -18 -4 -7 3 0 -5 14 -18 14 -13 23 -30 21 -37 -3 -9 0 -11
8 -6 9 6 9 3 1 -14 -9 -16 -9 -20 1 -16 13 5 38 -37 38 -62 0 -8 7 -16 16 -20
13 -5 13 -7 2 -14 -10 -6 -8 -9 7 -9 17 0 17 -2 5 -10 -13 -8 -13 -10 2 -10
11 0 15 -5 12 -15 -4 -8 1 -17 10 -21 9 -3 14 -10 11 -14 -3 -4 2 -11 11 -14
13 -5 14 -9 3 -22 -7 -8 -8 -14 -3 -13 21 4 35 -2 29 -11 -3 -5 -1 -10 6 -10
7 0 10 -3 6 -6 -3 -4 4 -15 16 -25 20 -18 21 -19 2 -13 -11 3 -5 -3 13 -15 29
-19 37 -31 33 -54 0 -4 5 -7 13 -7 8 0 17 -7 20 -16 9 -22 8 -26 -6 -18 -7 4
-8 3 -4 -4 4 -6 13 -9 20 -6 8 3 17 0 22 -7 4 -7 3 -10 -3 -6 -5 3 -10 0 -10
-7 0 -8 6 -12 14 -9 8 3 13 -2 13 -13 0 -16 2 -17 11 -4 9 12 10 11 6 -6 -3
-15 0 -21 12 -20 9 0 15 -5 14 -11 -2 -7 2 -13 8 -13 5 0 7 -5 4 -10 -4 -6 -3
-10 2 -9 20 3 34 -2 28 -11 -3 -5 -1 -10 5 -10 6 0 8 -5 4 -12 -5 -8 -2 -9 9
-5 11 4 17 1 17 -8 0 -8 7 -15 15 -15 8 0 12 -6 9 -14 -4 -11 0 -13 18 -9 18
4 20 3 8 -6 -13 -9 -12 -11 4 -11 12 0 16 -5 13 -14 -4 -10 -1 -13 8 -9 9 3
18 -3 22 -15 5 -12 13 -22 18 -23 17 -4 34 -26 27 -35 -4 -5 2 -2 12 6 11 8
17 11 14 5 -3 -5 0 -16 8 -23 8 -7 14 -10 14 -7 0 3 6 1 12 -5 7 -5 25 -20 41
-31 15 -11 25 -25 22 -30 -4 -5 1 -6 9 -3 10 4 18 -1 22 -11 4 -9 13 -14 20
-11 9 3 14 -2 14 -13 0 -10 7 -22 16 -25 12 -5 14 -3 8 7 -5 7 -1 5 8 -6 10
-10 22 -16 28 -12 5 3 10 -1 10 -9 0 -9 9 -16 20 -16 11 0 20 -5 20 -11 0 -5
-5 -7 -12 -3 -7 4 -8 3 -4 -5 6 -8 11 -9 20 -1 10 7 20 3 40 -15 15 -14 32
-25 37 -25 6 0 8 -4 5 -9 -3 -5 1 -12 10 -15 10 -4 13 -2 9 7 -4 6 0 4 8 -6 9
-10 18 -18 21 -18 20 3 26 -1 26 -13 0 -8 7 -17 16 -20 14 -5 15 -4 4 9 -7 8
-10 15 -8 15 9 0 48 -37 43 -41 -2 -3 4 -5 13 -5 31 -1 47 -9 71 -34 13 -14
20 -19 17 -13 -5 9 -2 11 8 7 9 -3 13 -11 9 -18 -3 -6 -3 -8 2 -4 4 4 15 2 23
-5 13 -10 14 -9 8 1 -7 11 -4 12 13 3 11 -7 21 -14 21 -17 0 -3 -4 -3 -8 0 -5
3 -9 -1 -9 -9 0 -11 4 -12 13 -4 15 12 54 -5 54 -24 0 -7 3 -8 8 -2 4 6 13 11
21 13 12 3 12 0 1 -13 -11 -13 -10 -14 5 -9 14 6 16 4 10 -7 -7 -12 -6 -12 7
-1 9 7 18 9 20 3 1 -5 10 -11 18 -13 22 -5 39 -22 32 -33 -2 -5 1 -5 8 2 16
15 60 -4 60 -26 0 -13 2 -13 9 -2 7 11 12 11 32 0 13 -7 27 -12 31 -11 4 1 4
-6 1 -16 -6 -15 -5 -15 10 -3 15 12 21 9 18 -11 0 -5 4 -8 9 -8 6 0 10 8 10
17 0 15 2 14 16 -3 8 -10 12 -13 8 -5 -5 11 -3 13 10 8 9 -4 15 -3 12 2 -3 4
6 13 20 20 20 9 24 9 18 -1 -4 -7 3 -3 15 10 15 15 29 21 42 17 11 -4 19 -3
18 2 -3 20 2 25 16 13 13 -11 14 -10 8 5 -5 14 -3 17 10 12 12 -4 17 -1 18 11
0 14 2 14 9 -3 8 -18 9 -18 9 -2 1 11 5 15 13 11 8 -5 9 -2 4 11 -5 15 -4 16
9 5 14 -12 20 -7 16 14 -1 5 5 4 13 -4 13 -10 16 -10 16 4 0 15 4 18 32 20 7
1 23 11 36 23 13 12 30 19 38 16 8 -3 14 0 14 7 0 7 7 10 16 6 12 -4 15 -2 10
9 -4 13 -2 14 14 5 16 -8 20 -8 18 2 -2 7 7 14 20 16 12 2 20 6 18 10 -2 4 3
14 12 22 14 13 15 12 9 -5 -7 -19 -6 -19 7 -2 7 9 18 17 25 17 6 0 11 5 11 12
0 6 3 8 7 5 3 -4 12 1 20 11 8 9 12 11 8 5 -4 -9 -1 -11 9 -7 9 3 13 10 10 15
-3 5 -1 9 5 9 5 0 17 7 25 16 9 8 16 11 16 5 0 -6 5 -11 11 -11 5 0 7 4 4 10
-6 9 8 15 29 11 5 -1 6 5 3 13 -3 8 1 17 9 20 9 3 12 1 9 -4 -3 -6 -2 -10 3
-10 5 0 12 10 16 23 5 17 8 19 15 8 7 -11 10 -9 15 7 5 14 13 19 29 15 16 -3
18 -2 8 5 -9 7 -10 12 -2 16 6 4 11 4 11 1 0 -3 12 7 27 22 16 17 24 21 20 11
-3 -10 -1 -20 6 -24 7 -4 9 -3 4 1 -4 5 1 17 10 28 13 15 14 18 3 12 -13 -8
-13 -7 -1 8 7 9 19 17 25 17 6 0 5 -4 -3 -9 -9 -6 -10 -11 -2 -15 6 -4 11 -3
11 2 0 5 19 29 42 53 23 23 38 34 34 24 -7 -18 -6 -18 16 0 13 11 25 22 28 24
3 2 -3 1 -13 -2 -12 -4 -16 -3 -11 4 3 6 14 9 24 6 13 -3 17 0 13 10 -5 12 -1
14 18 8 17 -4 20 -3 10 3 -17 12 -4 35 15 28 7 -3 16 0 20 6 5 7 2 8 -7 4 -8
-4 -5 -1 5 8 10 8 24 12 30 9 6 -4 5 1 -3 10 -12 15 -12 17 4 11 12 -5 16 -4
12 3 -4 6 0 14 9 17 9 3 12 11 8 18 -5 8 0 7 11 -2 10 -8 16 -10 12 -3 -4 6 4
24 19 40 15 15 23 21 18 13 -5 -9 -1 -7 8 3 10 11 15 24 11 31 -3 6 -3 8 2 4
13 -12 47 12 41 29 -6 14 -4 14 11 2 10 -7 15 -10 11 -5 -4 5 -2 18 4 30 7 11
11 24 10 28 -1 4 7 5 16 3 13 -2 18 3 18 18 -1 15 4 21 15 19 9 -1 19 4 22 12
4 11 1 13 -11 10 -9 -3 -7 1 6 8 12 8 19 18 15 23 -4 4 1 5 11 1 17 -6 17 -4
5 11 -7 10 -9 15 -5 11 5 -4 15 0 23 10 8 9 11 11 7 3 -5 -10 -3 -12 5 -7 9 6
9 11 1 21 -8 9 -6 14 5 19 8 3 14 11 13 18 -2 7 5 12 14 12 14 -1 16 2 7 18
-7 12 -7 18 -1 14 10 -6 27 21 23 37 -1 5 8 11 19 14 11 3 20 10 20 15 0 5 -5
6 -10 3 -6 -4 -3 10 7 29 11 25 20 33 28 26 8 -7 10 -1 7 20 -3 19 0 30 7 30
7 0 9 -5 5 -12 -4 -7 -3 -8 4 -4 9 5 9 13 1 28 -10 18 -9 20 6 14 15 -5 16 -4
5 9 -11 13 -10 14 4 9 9 -3 16 -2 16 4 0 6 -6 13 -12 15 -8 3 -6 6 4 6 11 1
15 6 12 16 -4 8 -2 15 4 15 6 0 8 9 5 20 -3 12 0 20 6 20 7 0 9 -6 5 -12 -4
-7 -3 -9 1 -5 12 10 15 38 4 31 -5 -3 -9 -3 -9 1 0 3 10 10 23 15 20 8 20 9 2
9 -19 1 -19 1 1 15 14 10 20 24 18 46 -2 25 1 30 13 25 13 -4 14 -3 3 10 -10
12 -10 15 0 15 10 0 10 3 1 14 -9 11 -9 16 0 22 8 5 9 3 4 -6 -5 -9 -4 -11 4
-6 6 4 9 19 7 33 -4 20 -2 24 12 19 13 -5 13 -3 -2 9 -12 9 -15 15 -7 15 7 0
11 6 8 14 -3 8 -3 17 1 21 7 6 8 10 11 36 0 5 6 7 11 4 6 -3 10 -1 10 4 0 6
-4 11 -9 11 -5 0 -8 8 -6 18 1 9 8 16 16 14 10 -3 10 0 -1 12 -7 9 -8 16 -3
16 5 0 8 16 8 35 -1 19 1 35 5 35 4 0 7 6 7 13 0 6 4 21 9 31 5 13 4 17 -3 13
-17 -10 -10 26 7 40 8 7 10 13 4 13 -6 0 -11 7 -11 15 0 8 5 12 10 8 5 -3 6 4
2 17 -5 15 -4 20 4 16 16 -10 13 0 -5 18 -10 10 -11 16 -4 16 7 0 10 7 6 15
-3 8 -2 15 2 15 4 0 7 28 7 63 0 34 4 65 10 69 6 5 6 8 -1 8 -11 0 -11 17 1
73 3 17 1 27 -6 27 -8 0 -8 4 0 13 8 10 7 17 -2 27 -9 10 -9 11 1 6 6 -4 12
-2 12 4 0 6 5 8 12 4 7 -4 8 -3 4 4 -4 6 -14 8 -24 5 -14 -5 -15 -3 -4 8 6 7
12 17 12 22 0 4 -6 5 -12 1 -9 -5 -9 -2 1 9 7 9 10 17 6 17 -4 0 -2 7 5 15 11
13 10 14 -4 9 -12 -5 -15 -2 -10 10 3 9 9 14 13 11 4 -2 8 2 8 9 0 8 -5 12
-12 10 -11 -5 -13 41 -2 53 4 3 2 12 -4 19 -7 9 -7 19 0 33 14 25 14 41 1 21
-8 -12 -10 -10 -10 11 0 14 6 31 13 38 10 10 8 11 -7 5 -16 -6 -17 -4 -8 12 7
14 7 25 0 38 -9 16 -8 18 8 13 16 -6 17 -5 4 5 -8 7 -15 25 -14 41 1 15 -4 27
-10 27 -6 0 -3 5 7 11 17 10 17 12 2 29 -12 14 -13 20 -4 26 8 5 10 3 4 -6 -6
-9 -4 -11 5 -5 10 6 9 11 -5 22 -11 7 -13 13 -6 13 9 0 8 5 -3 16 -19 19 -21
31 -3 15 11 -8 13 -6 12 8 -1 11 -7 26 -14 35 -14 17 -6 40 11 30 7 -4 8 -2 4
5 -4 6 -12 8 -18 5 -7 -5 -9 -2 -6 7 3 8 2 23 -2 34 -4 11 -3 26 2 33 7 8 6
12 -3 12 -10 0 -10 3 -1 12 9 9 8 16 -6 32 -9 11 -11 16 -4 12 6 -4 12 -2 12
3 0 6 -5 11 -11 11 -5 0 -7 5 -4 10 3 6 3 16 -1 22 -10 16 -13 48 -4 48 3 0 6
9 6 19 0 16 -3 18 -15 8 -11 -9 -10 -3 3 18 10 17 15 27 11 23 -13 -13 -35 25
-23 39 6 8 7 13 1 13 -12 0 -11 30 2 49 6 10 4 12 -5 6 -10 -6 -12 -4 -7 9 4
10 1 19 -9 23 -12 4 -13 8 -3 14 10 6 10 11 0 22 -9 11 -9 17 0 22 8 6 7 10
-2 16 -12 7 -12 12 -1 30 8 11 9 18 3 14 -6 -3 -11 -1 -11 5 0 6 -6 8 -12 4
-7 -4 -4 3 6 15 17 19 17 21 3 15 -15 -5 -16 -3 -8 19 7 19 6 28 -4 37 -10 8
-11 18 -5 35 8 20 5 27 -20 45 -16 11 -31 16 -34 11 -8 -13 -46 -10 -46 4 0 5
-5 3 -10 -5 -8 -12 -11 -13 -19 -1 -7 11 -9 11 -14 0 -5 -12 -7 -12 -15 0 -8
11 -10 11 -15 0 -4 -12 -7 -11 -16 1 -7 10 -11 11 -11 3 0 -7 -7 -13 -16 -13
-9 0 -12 5 -8 12 5 7 3 8 -7 2 -24 -14 -51 -16 -43 -2 4 7 -3 4 -15 -6 -20
-18 -21 -18 -15 -2 6 15 4 17 -12 9 -27 -13 -58 -10 -79 7 -15 12 -17 12 -10
1 6 -11 4 -13 -7 -8 -9 3 -21 0 -27 -6 -9 -9 -11 -8 -6 4 5 13 1 15 -21 11
-21 -4 -25 -2 -19 9 6 11 5 12 -6 2 -18 -17 -32 -16 -26 1 4 10 1 13 -8 9 -8
-3 -12 -9 -9 -14 3 -5 -2 -6 -10 -3 -9 3 -13 11 -9 18 4 7 1 7 -8 -1 -13 -10
-19 -10 -35 1 -15 11 -22 12 -33 3 -12 -10 -13 -9 -6 2 6 11 4 13 -8 8 -10 -3
-17 -2 -17 3 0 5 -7 6 -17 3 -12 -5 -14 -3 -8 8 7 12 6 12 -7 1 -12 -10 -18
-10 -27 2 -6 8 -21 12 -31 9 -11 -3 -20 -1 -20 5 0 5 -12 10 -27 10 -15 0 -29
4 -31 10 -2 6 -9 9 -16 6 -8 -3 -20 1 -27 8 -14 12 -22 15 -63 24 -10 2 -24 8
-32 15 -8 6 -14 8 -14 3 0 -4 -7 1 -16 12 -8 10 -13 12 -9 4 4 -10 2 -9 -8 2
-8 10 -17 15 -20 11 -4 -3 -13 -1 -20 5 -8 7 -18 8 -22 4 -5 -4 -5 -1 0 7 6
11 3 13 -15 8 -16 -4 -23 -1 -27 13 -3 12 -11 16 -21 13 -10 -5 -13 -3 -8 6 6
9 2 12 -10 10 -23 -4 -64 21 -64 38 0 6 -5 15 -12 19 -8 5 -9 2 -4 -11 5 -14
4 -16 -7 -7 -8 7 -18 8 -22 4 -5 -4 -6 -2 -2 3 3 6 -2 19 -10 30 -13 16 -14
16 -10 3 5 -15 4 -16 -13 -6 -10 7 -24 21 -30 33 -9 17 -10 17 -5 1 5 -16 3
-17 -10 -6 -8 7 -13 16 -10 20 3 5 0 12 -6 16 -8 4 -9 3 -5 -4 4 -7 2 -12 -3
-12 -6 0 -11 5 -11 10 0 6 -8 10 -17 8 -10 -2 -17 3 -16 10 2 6 -2 12 -8 12
-5 0 -7 4 -4 10 3 6 -1 7 -9 4 -10 -4 -18 1 -22 11 -5 13 -9 14 -15 3 -7 -10
-9 -9 -9 5 0 16 -12 22 -34 18 -5 -1 -6 5 -3 13 4 9 3 15 -1 14 -9 -3 -53 21
-71 39 -12 13 -12 16 0 25 10 7 8 8 -8 3 -13 -3 -23 -2 -23 3 0 5 -12 14 -26
20 -14 7 -22 17 -19 22 4 6 -1 7 -11 3 -10 -3 -15 -2 -12 3 4 5 -6 9 -22 9
-20 0 -26 -4 -22 -14z"/>
<path d="M3946 5478 c3 -5 10 -6 15 -3 13 9 11 12 -6 12 -8 0 -12 -4 -9 -9z"/>
<path d="M1620 4919 c0 -5 5 -7 10 -4 6 3 10 8 10 11 0 2 -4 4 -10 4 -5 0 -10
-5 -10 -11z"/>
<path d="M5205 4680 c-3 -6 1 -7 9 -4 18 7 21 14 7 14 -6 0 -13 -4 -16 -10z"/>
<path d="M5267 3989 c7 -7 15 -10 18 -7 3 3 -2 9 -12 12 -14 6 -15 5 -6 -5z"/>
<path d="M5273 3705 c0 -8 4 -12 9 -9 5 3 6 10 3 15 -9 13 -12 11 -12 -6z"/>
<path d="M4996 2613 c-6 -14 -5 -15 5 -6 7 7 10 15 7 18 -3 3 -9 -2 -12 -12z"/>
<path d="M4890 1988 c-17 -24 -36 -50 -43 -58 -39 -47 -59 -83 -50 -89 5 -3
13 -18 16 -33 4 -14 10 -34 13 -43 6 -15 2 -16 -37 -10 -24 4 -47 13 -51 19
-5 7 -27 -9 -62 -43 -43 -43 -54 -60 -50 -77 7 -25 -11 -40 -30 -25 -14 11
-53 -10 -70 -38 -14 -23 -10 -26 34 -27 22 -1 45 -2 51 -3 11 -1 10 -21 -7
-85 -8 -32 10 -34 46 -5 16 14 24 31 25 52 0 30 2 32 38 32 29 1 43 7 62 29
14 16 25 33 25 38 0 4 -25 6 -55 3 l-55 -6 0 33 c0 52 8 57 70 46 30 -6 63
-14 72 -19 10 -5 21 -9 25 -9 14 0 57 71 47 78 -8 6 -44 108 -44 126 0 8 20
-7 65 -51 37 -37 35 -38 93 48 38 57 42 71 19 74 -25 5 -106 58 -101 66 2 4 0
10 -5 14 -6 3 -24 -14 -41 -37z m80 -90 c13 -10 21 -20 17 -24 -5 -6 -97 63
-97 73 0 5 36 -17 80 -49z"/>
<path d="M1861 1994 c-13 -13 -41 -32 -62 -41 -21 -10 -39 -22 -39 -26 0 -14
40 -67 51 -67 5 0 9 7 9 15 0 8 5 15 11 15 7 0 18 8 25 18 11 14 11 7 0 -40
-16 -69 -11 -76 57 -74 47 1 48 1 26 -16 -11 -10 -27 -18 -35 -18 -21 0 -17
-16 11 -46 14 -15 36 -40 48 -56 23 -29 47 -37 47 -15 0 7 9 20 20 29 19 17
19 16 14 -37 -7 -63 -4 -64 83 -50 30 5 20 -19 -15 -34 l-26 -13 33 -29 c37
-32 51 -36 51 -15 0 7 10 24 23 38 12 14 28 35 36 46 8 12 18 19 22 16 4 -2
10 0 13 4 7 12 -66 75 -73 64 -3 -5 -23 -12 -44 -16 l-39 -7 3 38 c2 21 6 43
10 48 5 7 -15 36 -47 70 -52 57 -57 60 -102 60 l-47 0 3 35 c1 19 7 37 12 38
15 5 12 19 -12 57 -27 40 -34 41 -67 9z m139 -257 c0 -2 -10 -12 -22 -23 l-23
-19 19 23 c18 21 26 27 26 19z"/>
<path d="M2233 1549 c-29 -10 -30 -42 -3 -69 27 -27 66 -26 73 2 12 43 -30 82
-70 67z"/>
<path d="M3786 1545 c-11 -8 -15 -15 -9 -15 6 0 16 7 23 15 16 19 11 19 -14 0z"/>
<path d="M4506 1486 c-19 -16 -27 -30 -23 -40 8 -21 17 -20 51 7 20 16 27 29
23 40 -8 22 -16 21 -51 -7z"/>
<path d="M2348 1493 c-22 -6 -47 -46 -43 -69 2 -10 4 -24 4 -31 1 -17 46 -60
82 -79 27 -13 46 -18 96 -23 6 0 14 -10 18 -21 8 -24 86 -60 118 -55 15 3 31
-5 50 -25 17 -18 42 -32 65 -35 20 -4 49 -13 63 -20 32 -17 45 -7 55 42 5 24
10 30 25 26 28 -8 31 -18 20 -57 -8 -31 -7 -36 10 -41 27 -9 36 0 43 41 9 44
30 40 34 -7 4 -44 45 -72 104 -71 63 1 94 54 58 98 -16 19 -73 36 -103 30 -14
-2 -27 0 -29 5 -2 6 -10 11 -18 13 -74 12 -183 42 -218 58 -29 13 -55 18 -77
15 -27 -5 -36 -1 -54 23 -28 39 -93 57 -125 37 -65 -43 -200 38 -149 88 17 18
18 18 58 4 17 -7 42 -27 54 -45 20 -29 25 -32 47 -22 l23 11 -27 32 c-47 57
-131 93 -184 78z m262 -198 c18 -22 -1 -39 -34 -31 -35 9 -36 46 -2 46 13 0
29 -7 36 -15z m166 -66 c3 -5 -9 -6 -26 -3 -19 4 -30 2 -30 -5 0 -6 -4 -11
-10 -11 -14 0 -12 28 2 32 17 6 57 -3 64 -13z m336 -93 c11 -16 -1 -26 -32
-26 -29 0 -50 28 -29 40 14 9 52 0 61 -14z"/>
<path d="M4378 1439 c-13 -7 -16 -17 -11 -39 6 -34 -9 -40 -43 -16 -18 13 -25
12 -62 -10 l-41 -25 16 -34 c18 -37 13 -48 -24 -59 -18 -6 -23 -1 -34 29 -7
19 -18 35 -24 35 -20 0 -36 -17 -30 -32 5 -11 -2 -15 -25 -16 -16 0 -40 -4
-53 -7 -59 -17 -62 -18 -51 -5 6 6 33 14 60 18 41 6 50 11 52 30 3 20 0 22
-35 18 -91 -9 -164 -64 -133 -101 14 -17 59 -19 109 -5 41 12 51 6 28 -17 -11
-11 -33 -17 -67 -17 -39 0 -51 -4 -56 -18 -9 -29 4 -38 49 -32 56 8 123 38
138 62 10 16 18 18 35 12 29 -11 124 34 124 58 0 13 2 14 9 3 7 -10 13 -11 30
-2 18 10 19 15 10 33 -12 22 -14 22 36 2 11 -5 17 3 22 26 5 26 8 29 15 16 11
-20 37 -21 44 -1 7 18 -42 105 -59 105 -7 0 -20 -5 -29 -11z"/>
<path d="M3222 1148 c-1 -40 -6 -75 -13 -79 -19 -12 6 -20 78 -25 38 -2 83 -7
101 -9 47 -6 85 11 79 34 -6 24 14 22 50 -7 27 -22 74 -23 81 -3 2 6 13 7 25
2 25 -8 29 -8 74 3 17 4 37 14 43 21 8 10 18 11 36 4 51 -19 117 7 133 52 7
22 5 31 -10 48 -11 12 -27 22 -37 22 -40 4 -74 -2 -95 -15 -14 -9 -38 -13 -65
-10 -30 3 -58 -2 -88 -15 -25 -11 -46 -16 -49 -10 -4 5 -35 9 -70 9 -57 0 -64
2 -67 21 -3 20 -10 22 -103 25 l-101 3 -2 -71z m148 16 c0 -2 -18 -4 -40 -4
-22 0 -40 3 -40 8 0 4 18 6 40 4 22 -2 40 -6 40 -8z m46 -29 c1 -51 -4 -56
-62 -54 -59 2 -80 11 -69 29 4 7 25 10 54 8 45 -3 46 -2 46 25 -1 20 4 27 15
25 9 -2 15 -15 16 -33z m321 13 c-3 -8 -6 -5 -6 6 -1 11 2 17 5 13 3 -3 4 -12
1 -19z m121 5 c-4 -20 -48 -34 -66 -20 -19 15 5 37 40 37 22 0 29 -4 26 -17z
m-164 -11 c2 -4 -5 -9 -16 -9 -11 -1 -26 -10 -32 -19 -7 -9 -16 -13 -19 -8 -9
15 6 32 33 37 14 2 26 5 27 6 1 0 4 -3 7 -7z m-110 -58 c5 -14 4 -15 -9 -4
-17 14 -19 20 -6 20 5 0 12 -7 15 -16z"/>
</g>
</svg>
